<svg xmlns="http://www.w3.org/2000/svg" xmlns:xlink="http://www.w3.org/1999/xlink" viewBox="0,0,256,256" width="50px" height="50px"><g fill-opacity="0" fill="#ffffff" fill-rule="nonzero" stroke="none" stroke-width="1" stroke-linecap="butt" stroke-linejoin="miter" stroke-miterlimit="10" stroke-dasharray="" stroke-dashoffset="0" font-family="none" font-weight="none" font-size="none" text-anchor="none" style="mix-blend-mode: normal"><path d="M0,256v-256h256v256z" id="bgRectangle"></path></g><g fill="#ffffff" fill-rule="nonzero" stroke="none" stroke-width="1" stroke-linecap="butt" stroke-linejoin="miter" stroke-miterlimit="10" stroke-dasharray="" stroke-dashoffset="0" font-family="none" font-weight="none" font-size="none" text-anchor="none" style="mix-blend-mode: normal"><g transform="scale(5.12,5.12)"><path d="M25,2c-12.6907,0 -23,10.3093 -23,23c0,12.69071 10.3093,23 23,23c12.69071,0 23,-10.30929 23,-23c0,-12.6907 -10.30929,-23 -23,-23zM25,4c11.60982,0 21,9.39018 21,21c0,11.60982 -9.39018,21 -21,21c-11.60982,0 -21,-9.39018 -21,-21c0,-11.60982 9.39018,-21 21,-21zM26.58008,10c-2.65186,0 -4.663,0.86722 -5.90234,2.40039c-1.23934,1.53317 -1.67773,3.58065 -1.67773,5.82617v1.77344h-2c-0.55226,0.00006 -0.99994,0.44774 -1,1v5c0.00006,0.55226 0.44774,0.99994 1,1h2v12c0.00006,0.55226 0.44774,0.99994 1,1h6c0.55226,-0.00006 0.99994,-0.44774 1,-1v-12h4c0.47687,-0.00017 0.88729,-0.33701 0.98047,-0.80469l1,-5c0.05844,-0.29363 -0.01774,-0.598 -0.20762,-0.82948c-0.18987,-0.23148 -0.47346,-0.36572 -0.77285,-0.36584h-5v-2.19336c0,-0.48502 0.03137,-0.48103 0.17188,-0.57227c0.14051,-0.09124 0.64832,-0.23437 1.53906,-0.23437h3.28906c0.55226,-0.00006 0.99994,-0.44774 1,-1v-4c-0.00023,-0.42258 -0.26605,-0.79942 -0.66406,-0.94141c0,0 -2.8796,-1.05859 -5.75586,-1.05859zM26.58008,12c1.89242,0 3.64742,0.51045 4.41992,0.75195v2.24805h-2.28906c-1.04726,0 -1.89696,0.08458 -2.62695,0.55859c-0.72999,0.47401 -1.08398,1.38207 -1.08398,2.24805v3.19336c0.00006,0.55226 0.44774,0.99994 1,1h4.7793l-0.59961,3h-4.17969c-0.55226,0.00006 -0.99994,0.44774 -1,1v12h-4v-12c-0.00006,-0.55226 -0.44774,-0.99994 -1,-1h-2v-3h2c0.55226,-0.00006 0.99994,-0.44774 1,-1v-2.77344c0,-1.97948 0.40501,-3.54478 1.23242,-4.56836c0.82741,-1.02358 2.10451,-1.6582 4.34766,-1.6582z"></path></g></g></svg>